# This file uses centimeters as units for non-parametric coordinates.

mtllib roca_04_low.mtl
g default
v -23.619230 28.084201 26.773335
v -14.505117 66.296859 30.495886
v -15.562724 89.988139 -13.929097
v -42.047523 33.684891 -20.757262
v 26.096135 49.795665 -42.588676
v -0.722906 20.037521 -52.100335
v 2.855969 14.116448 31.163511
v 29.768632 32.499708 48.170878
v 5.917382 57.592261 48.128971
v 28.913606 84.983850 -8.035795
v 5.701225 92.604120 -28.794954
v -40.089072 69.226408 15.299614
v 24.650045 31.233102 -50.152835
v 22.211522 18.701627 -49.886385
v -28.522653 26.433096 -33.597184
v 24.728797 10.161624 -33.023057
v 26.338672 12.063749 15.221853
v 49.251142 36.432882 25.674775
v 35.407203 44.656922 -24.009818
v -43.234279 47.536937 15.073685
v -39.698256 69.878127 7.640280
v -35.222405 64.084020 27.202610
v -11.988937 20.000697 28.778963
v 24.651663 15.983263 29.112393
v 29.251142 22.675009 39.168168
v 28.377650 43.771832 49.279716
v 27.537426 54.720326 43.736487
v -5.373541 61.287451 39.227531
v 33.878851 67.257549 26.181569
v 25.992041 86.015319 -16.092751
v 22.393819 83.333509 -25.805938
v -5.932772 92.171099 -22.415320
v 39.863012 22.958612 20.508969
v 30.722621 25.576259 -28.909706
v -45.297531 48.685372 4.567561
v -35.694659 45.014235 27.151831
v 25.596457 40.025431 -47.221726
v 23.399344 23.818844 -51.177227
v -44.887236 49.924382 -20.930155
v -28.412752 47.190030 -39.882050
v -39.992315 28.158713 -1.426100
v -22.636739 14.551893 -11.342353
v -19.412907 11.531159 0.246906
v -37.005285 26.074121 9.177863
v 0.763536 3.094635 -25.615811
v 23.399346 14.473401 -43.938391
v 25.911468 8.110596 -19.032984
v 1.728333 -0.146913 -11.293558
v 2.787672 4.548145 16.677582
v 26.732512 9.655274 6.100689
v 25.733642 14.358495 23.372872
v -29.097323 25.204234 23.334540
v -13.783693 12.468645 20.360357
v 33.044824 17.089021 17.535321
v 35.485798 22.936061 30.753170
v 40.751404 22.772357 9.511673
v 52.707128 38.720108 12.788460
v 45.589135 29.333648 23.409510
v 40.118887 34.261248 37.894184
v 27.928938 17.163744 -31.319961
v 35.017982 23.804895 -15.757680
v 27.591350 28.243963 -40.574797
v 30.095165 46.899798 -34.759191
v 33.320022 34.667768 -26.591989
v 43.636722 42.771630 -12.428531
v 36.670226 55.762364 -20.806165
v 43.096300 65.295150 -9.084083
v 30.052358 68.268228 -25.262290
v 35.818456 67.007810 -17.971408
v 49.876993 44.475065 26.742536
v 38.413820 47.742409 39.098376
v 50.642304 58.020875 13.959009
v 47.341333 52.783529 26.922634
v -44.181269 37.793871 1.901503
v -46.456335 49.653656 -8.290932
v -41.511233 36.211507 12.632990
v -42.625311 58.943784 16.081383
v -43.470455 59.779510 6.866304
v -37.812022 70.154933 -1.393669
v -33.451345 34.578295 25.389888
v -38.507577 45.768326 25.792371
v -31.678350 43.812160 28.452725
v -31.281392 60.852475 29.960901
v -36.326107 55.326682 27.792997
v -37.814516 66.451609 24.678564
v -32.260264 69.854623 25.269912
v -29.946710 77.955896 18.290658
v -36.030316 77.179193 12.371927
v -24.823684 68.258042 27.509987
v -27.925536 73.400096 22.760158
v -30.801239 83.200143 8.160006
v -34.979177 77.783094 5.732033
v -27.049592 83.764431 -4.262835
v -29.550167 83.832013 2.153648
v -26.361422 41.512689 30.562775
v -12.090480 32.652984 38.921828
v -11.475803 45.298477 46.722183
v -25.938547 56.599123 33.876946
v 3.298433 24.421904 46.813210
v 27.183684 18.772955 33.601036
v 29.972145 27.322289 44.331254
v 4.110744 35.239754 58.048882
v 5.099569 44.844617 58.997589
v 29.062551 37.992187 49.767603
v -20.509341 62.869714 33.080290
v -8.360765 52.634512 47.323561
v -16.989540 76.575292 19.188422
v -5.333979 77.345209 21.773407
v -5.783844 95.514664 -6.501566
v -18.337397 91.038660 -0.809211
v 6.233294 76.838637 25.997627
v 31.235646 59.928004 36.795669
v 33.737826 75.006523 13.996432
v 6.113539 96.932233 -8.813371
v 6.087028 97.623257 -17.154275
v 23.809512 85.072412 -22.140519
v -17.532096 91.744963 -6.406440
v -5.470371 96.194463 -13.426157
v -22.997602 83.550166 -11.025480
v -10.052849 83.880975 -24.776788
v -17.121585 69.266276 -27.184702
v -33.642531 70.143472 -10.725478
v 4.615953 82.247187 -34.628048
v 25.265296 69.951429 -30.789137
v 26.006625 60.143661 -36.458446
v 2.938133 65.586796 -40.429984
v -0.131923 42.314291 -58.734443
v -25.210601 33.675173 28.275431
v -11.930512 25.940557 33.816497
v -12.036727 39.420654 43.452816
v -26.723056 49.699813 32.594554
v 3.025271 19.202314 39.127810
v 3.668031 29.908936 53.395094
v 4.603249 39.990725 59.949983
v -23.650978 60.573191 33.916180
v -10.114254 49.341373 48.042619
v -15.668887 70.539031 25.644433
v -5.078791 68.768118 31.315111
v -5.733301 85.658902 11.638689
v -18.070604 83.015684 12.343252
v 6.142182 66.851543 38.011119
v 6.195883 86.130078 13.348819
v 5.968839 95.979303 -23.785518
v -5.371647 94.886279 -18.781878
v -16.505161 91.102776 -10.972687
v -12.977791 77.542750 -24.948210
v -27.949850 77.798366 -9.753251
v 3.941228 74.817031 -36.283964
v 1.342531 54.332295 -50.257927
v -0.771580 30.793549 -58.826175
v -40.203288 60.359561 -15.774476
v -23.232151 58.702648 -33.983633
v -29.766632 36.066579 -39.416994
v -44.949479 40.315649 -22.222455
v -42.047431 30.928010 -12.796138
v -25.909673 19.390369 -23.431343
v -0.132372 10.313665 -40.124143
v 2.761577 1.272512 9.767348
v 2.797953 9.030593 23.744855
v -31.439421 24.580844 21.415526
v -14.972834 10.632489 16.032539
v -12.697862 15.550719 24.451381
v -26.296805 26.576486 25.058066
v 30.931773 18.237654 26.541327
v 33.460193 15.714551 7.586578
v 47.768300 30.337963 11.334986
v 38.583942 28.279794 34.802345
v 30.394300 15.321562 -17.692817
v 25.797682 20.501491 -42.482844
v 29.043958 37.067004 -38.167419
v 39.861005 32.847815 -14.072269
v 45.058464 53.897633 -10.618385
v 30.684626 57.671545 -29.848619
v 39.983328 40.872814 39.234128
v 53.764141 48.227537 13.604037
v -45.898944 39.576399 -10.483807
v -43.125675 60.294502 -4.407478
v -36.124595 34.617280 23.998824
v -29.912455 34.685244 26.640585
v -32.217513 53.067111 29.661736
v -39.091472 56.827006 26.008891
v -34.614987 73.300473 21.831601
v -28.621463 65.570641 29.043426
v -32.420458 77.890910 -1.809731
vt 0.608065 0.143453
vt 0.638090 0.375088
vt 0.562275 0.125426
vt 0.619871 0.125969
vt 0.569932 0.096200
vt 0.633620 0.099810
vt 0.631250 0.434710
vt 0.500650 0.119052
vt 0.505483 0.088202
vt 0.509212 0.060081
vt 0.576780 0.067654
vt 0.512166 0.036953
vt 0.581351 0.043855
vt 0.647212 0.072424
vt 0.657577 0.049015
vt 0.629060 0.513657
vt 0.412323 0.111587
vt 0.414148 0.087498
vt 0.418682 0.064086
vt 0.423546 0.042636
vt 0.426633 0.023190
vt 0.514695 0.020206
vt 0.426405 0.002844
vt 0.395457 0.152536
vt 0.489552 0.191210
vt 0.413007 0.207167
vt 0.583300 0.028138
vt 0.661300 0.033066
vt 0.360195 0.212695
vt 0.336008 0.286627
vt 0.381718 0.249324
vt 0.360525 0.293422
vt 0.393718 0.284944
vt 0.363789 0.316421
vt 0.406788 0.326819
vt 0.370141 0.347435
vt 0.426238 0.251611
vt 0.441725 0.301532
vt 0.457745 0.350663
vt 0.421087 0.368953
vt 0.486229 0.427243
vt 0.447287 0.432983
vt 0.379052 0.379606
vt 0.399966 0.428529
vt 0.510137 0.216077
vt 0.531682 0.255265
vt 0.546164 0.301766
vt 0.557913 0.383376
vt 0.561968 0.412149
vt 0.497228 0.452910
vt 0.567909 0.433035
vt 0.507405 0.473818
vt 0.574389 0.445437
vt 0.522753 0.488660
vt 0.457146 0.454137
vt 0.409279 0.445921
vt 0.463333 0.471410
vt 0.463986 0.486308
vt 0.416822 0.460461
vt 0.421977 0.470577
vt 0.939738 0.067578
vt 0.872990 0.050897
vt 0.000000 0.103490
vt 0.008554 0.128391
vt 0.927975 0.088467
vt 0.017210 0.162773
vt 0.915957 0.118867
vt 0.853366 0.068542
vt 0.836692 0.096768
vt 0.084700 0.107783
vt 0.098585 0.144152
vt 0.110985 0.182925
vt 0.122721 0.217112
vt 0.999466 0.202741
vt 0.134268 0.245809
vt 0.039747 0.266307
vt 0.145849 0.268174
vt 0.984393 0.295340
vt 0.156936 0.282378
vt 0.932987 0.428156
vt 0.904219 0.165893
vt 0.825520 0.138455
vt 0.890765 0.212006
vt 0.817024 0.178899
vt 0.874718 0.246991
vt 0.872119 0.319919
vt 0.807292 0.209278
vt 0.828735 0.261954
vt 0.831743 0.336698
vt 0.763403 0.226694
vt 0.787894 0.351189
vt 0.756733 0.274301
vt 0.881532 0.437060
vt 0.828614 0.443825
vt 0.781398 0.447166
vt 0.747251 0.363742
vt 0.717647 0.286398
vt 0.183956 0.281046
vt 0.224483 0.269826
vt 0.269476 0.247032
vt 0.343725 0.194837
vt 0.713540 0.444976
vt 0.370797 0.171253
vt 0.689043 0.442284
vt 0.394766 0.148414
vt 0.661504 0.438926
vt 0.692993 0.378948
vt 0.634571 0.171582
vt 0.676547 0.380178
vt 0.663017 0.312037
vt 0.658853 0.379345
vt 0.616419 0.153967
vt 0.387193 0.124535
vt 0.359402 0.143752
vt 0.347944 0.113546
vt 0.381808 0.097883
vt 0.330797 0.166334
vt 0.257963 0.219688
vt 0.245208 0.187906
vt 0.316611 0.134475
vt 0.302379 0.102492
vt 0.337780 0.084510
vt 0.230378 0.154711
vt 0.213919 0.120810
vt 0.288850 0.072642
vt 0.328666 0.058019
vt 0.378890 0.072115
vt 0.376798 0.047921
vt 0.215404 0.244166
vt 0.204663 0.213811
vt 0.176884 0.259221
vt 0.166940 0.232691
vt 0.154055 0.203307
vt 0.191006 0.182223
vt 0.139705 0.169981
vt 0.174877 0.148413
vt 0.157052 0.111158
vt 0.195146 0.086039
vt 0.630547 0.389088
vt 0.630542 0.345262
vt 0.125080 0.131492
vt 0.628968 0.424375
vt 0.373916 0.024160
vt 0.318945 0.032181
vt 0.581173 0.209517
vt 0.534660 0.173861
vt 0.273236 0.045006
vt 0.611325 0.253161
vt 0.770801 0.194830
vt 0.730668 0.178700
vt 0.744374 0.142251
vt 0.781535 0.160971
vt 0.695982 0.162110
vt 0.713056 0.126219
vt 0.731034 0.092560
vt 0.758445 0.105621
vt 0.750324 0.063187
vt 0.774243 0.072529
vt 0.791094 0.122067
vt 0.803372 0.084458
vt 0.657460 0.141130
vt 0.648222 0.136491
vt 0.667867 0.105722
vt 0.677918 0.108887
vt 0.636741 0.130516
vt 0.653864 0.102368
vt 0.670613 0.074399
vt 0.686974 0.076852
vt 0.684680 0.050691
vt 0.704071 0.052747
vt 0.698499 0.079326
vt 0.718215 0.054612
vt 0.735898 0.034902
vt 0.771859 0.040534
vt 0.716814 0.033508
vt 0.329159 0.347153
vt 0.331047 0.371815
vt 0.344078 0.411976
vt 0.692334 0.032788
vt 0.330687 0.318929
vt 0.821873 0.057696
vt 0.794851 0.047875
vt 0.354458 0.432141
vt 0.368066 0.453442
vt 0.640612 0.323863
vt 0.651818 0.318364
vt 0.625499 0.163996
vt 0.672388 0.305765
vt 0.678870 0.198831
vt 0.719137 0.214896
vt 0.798813 0.265293
vt 0.796560 0.231725
vt 0.093999 0.332454
vt 0.958903 0.332269
vt 0.062005 0.300946
vt 0.997482 0.256323
vt 0.026454 0.215255
vt 0.996467 0.147852
vt 0.997043 0.111404
vt 0.558400 0.512203
vt 0.503875 0.536630
vt 1.000000 0.084891
vt 0.623430 0.452066
vt 0.509339 0.495625
vt 0.445441 0.513580
vt 0.386946 0.475391
vt 0.797599 0.022740
vt 0.820249 0.030444
vt 0.844909 0.040326
vt 0.695319 0.015916
vt 0.725888 0.014125
vt 0.661840 0.019197
vt 0.753165 0.015797
vt 0.254287 0.016597
vt 0.309442 0.004039
vt 0.171046 0.054323
vt 0.369988 0.000000
vt 0.485909 0.149053
vt 0.108302 0.095094
vt 0.136093 0.076720
vt 0.518148 0.005060
vt 0.587048 0.015617
vt 0.649458 0.520395
vt 0.413319 0.131864
vt 0.679193 0.526991
vt 0.713802 0.532567
vt 0.808034 0.532581
vt 0.860416 0.525589
vt 0.902392 0.517468
vt 0.928009 0.511468
vt 0.852681 0.278585
vt 0.494472 0.150322
vt 0.556125 0.152174
vn -0.468302 -0.470117 0.748120
vn -0.423920 -0.631246 0.649477
vn -0.530629 -0.560160 0.636124
vn -0.535667 -0.397182 0.745190
vn -0.613627 -0.467350 0.636432
vn -0.595151 -0.320208 0.737063
vn -0.095450 -0.824784 0.557334
vn -0.165877 -0.793459 0.585583
vn -0.200485 -0.741606 0.640177
vn -0.208654 -0.643528 0.736434
vn -0.668232 -0.354475 0.654075
vn -0.154357 -0.444352 0.882454
vn -0.678384 -0.166359 0.715626
vn -0.641267 -0.203444 0.739856
vn -0.623176 0.020817 0.781804
vn 0.176565 -0.866268 0.467337
vn 0.204825 -0.843203 0.497047
vn 0.256541 -0.786945 0.561163
vn 0.328927 -0.669964 0.665549
vn 0.424578 -0.440618 0.790942
vn 0.497639 -0.069665 0.864582
vn -0.016838 -0.054380 0.998378
vn 0.423340 0.393461 0.816071
vn 0.098338 0.469378 0.877505
vn 0.342958 0.592800 0.728676
vn 0.068240 0.664554 0.744118
vn -0.573012 0.190242 0.797160
vn -0.456914 0.385830 0.801477
vn -0.314217 0.609634 0.727746
vn -0.217101 0.670133 0.709781
vn -0.243604 0.704115 0.666992
vn -0.183938 0.718430 0.670839
vn -0.237979 0.720847 0.650958
vn -0.141044 0.713470 0.686344
vn -0.184225 0.747536 0.638163
vn -0.096216 0.726403 0.680501
vn 0.089301 0.754485 0.650214
vn 0.141192 0.788696 0.598350
vn 0.229285 0.857938 0.459751
vn -0.110607 0.841248 0.529215
vn 0.273343 0.914213 0.299164
vn -0.119220 0.922020 0.368328
vn -0.123394 0.822784 0.554798
vn -0.233057 0.898001 0.373200
vn 0.390560 0.663858 0.637774
vn 0.434937 0.717576 0.543980
vn 0.553952 0.772850 0.309581
vn 0.582685 0.800477 0.140411
vn 0.660643 0.706783 -0.252999
vn 0.303492 0.946831 -0.106790
vn 0.655275 0.625199 -0.423959
vn 0.247400 0.879601 -0.406319
vn 0.502405 0.473636 -0.723365
vn 0.081700 0.585568 -0.806496
vn -0.249312 0.966524 -0.060624
vn -0.488495 0.868240 -0.086790
vn -0.350949 0.866063 -0.356048
vn -0.492564 0.562746 -0.663851
vn -0.580353 0.747839 -0.322377
vn -0.632670 0.550801 -0.544377
vn -0.566646 0.392300 -0.724578
vn -0.679790 0.458769 -0.572204
vn 0.042350 0.414888 -0.908886
vn -0.055857 0.415750 -0.907762
vn -0.558487 0.406122 -0.723296
vn -0.057577 0.564386 -0.823501
vn -0.471657 0.583906 -0.660753
vn -0.664515 0.493251 -0.561358
vn -0.629845 0.597602 -0.496152
vn 0.495622 0.385177 -0.778458
vn 0.460000 0.394883 -0.795278
vn 0.489161 0.431389 -0.758041
vn 0.537575 0.374275 -0.755600
vn -0.050428 0.576156 -0.815783
vn 0.536873 0.164634 -0.827443
vn -0.144189 0.306727 -0.940812
vn 0.399532 -0.223360 -0.889092
vn -0.285506 -0.214064 -0.934164
vn 0.165060 -0.649900 -0.741880
vn -0.340698 -0.636343 -0.692093
vn -0.453856 0.603809 -0.655308
vn -0.662870 0.581774 -0.471321
vn -0.564018 0.340383 -0.752345
vn -0.787274 0.345344 -0.510820
vn -0.641159 -0.201568 -0.740463
vn -0.594304 -0.603142 -0.531999
vn -0.856530 -0.124329 -0.500898
vn -0.750462 -0.553127 -0.361741
vn -0.568046 -0.763577 -0.307040
vn -0.741338 -0.660206 -0.120607
vn -0.566995 -0.810949 -0.144491
vn -0.730453 -0.682962 -0.000748
vn -0.284778 -0.841775 -0.458603
vn -0.198236 -0.941813 -0.271462
vn -0.038687 -0.998632 -0.035174
vn -0.537467 -0.842798 0.028654
vn -0.701957 -0.699589 0.133536
vn 0.240531 -0.823394 -0.513971
vn 0.348058 -0.879833 -0.323649
vn 0.442224 -0.893789 -0.074695
vn 0.457604 -0.884776 0.088141
vn 0.007652 -0.990851 0.134744
vn 0.374207 -0.870115 0.320733
vn 0.089655 -0.904013 0.417999
vn 0.288002 -0.874986 0.389171
vn 0.017524 -0.862905 0.505063
vn -0.490775 -0.851432 0.184940
vn -0.649972 -0.710518 0.269630
vn -0.347916 -0.762737 0.545149
vn -0.431003 -0.589896 0.682832
vn -0.345335 -0.684945 0.641555
vn -0.392864 -0.496066 0.774323
vn 0.525934 -0.805124 0.274169
vn 0.595619 -0.783472 0.177227
vn 0.666964 -0.724799 0.172697
vn 0.603651 -0.722806 0.336389
vn 0.753187 -0.656772 -0.036885
vn 0.833227 -0.535138 -0.139143
vn 0.844998 -0.472224 -0.250962
vn 0.784756 -0.606544 -0.127521
vn 0.851752 -0.489960 -0.185631
vn 0.769964 -0.590526 0.241733
vn 0.856660 -0.366912 -0.362641
vn 0.888796 -0.158870 -0.429887
vn 0.952454 -0.242854 -0.183994
vn 0.878644 -0.308320 0.364586
vn 0.689325 -0.564539 0.454012
vn 0.754103 -0.291157 0.588690
vn 0.912803 -0.328967 -0.242017
vn 0.917293 -0.236945 -0.320048
vn 0.928346 -0.229454 -0.292446
vn 0.942598 -0.121901 -0.310883
vn 0.932488 -0.028614 -0.360067
vn 0.894871 -0.144439 -0.422308
vn 0.900481 0.086019 -0.426303
vn 0.858944 -0.008227 -0.512003
vn 0.815157 0.140287 -0.561996
vn 0.906901 0.106244 -0.407730
vn 0.791649 0.380321 -0.478171
vn 0.838904 0.520255 -0.159924
vn 0.845641 0.202547 -0.493828
vn 0.794601 0.340826 -0.502441
vn 0.745301 0.030478 0.666031
vn 0.885180 0.061723 0.461136
vn 0.722020 0.480133 0.498156
vn 0.649605 0.378999 0.659070
vn 0.989226 0.085610 -0.118756
vn 0.846190 0.525061 0.090959
vn -0.976931 -0.213554 -0.000541
vn -0.950677 -0.281212 0.130897
vn -0.992441 0.012156 0.122123
vn -0.988306 0.148601 -0.034193
vn -0.901979 -0.335230 0.272129
vn -0.954289 -0.092723 0.284139
vn -0.960815 0.131807 0.243848
vn -0.966558 0.252537 0.044625
vn -0.905892 0.374079 0.198556
vn -0.905268 0.420078 -0.063429
vn -0.906326 0.407290 -0.112638
vn -0.827254 0.516729 -0.220548
vn -0.816921 -0.365578 0.446086
vn -0.404913 -0.305819 0.861696
vn -0.429079 -0.162036 0.888615
vn -0.860524 -0.145635 0.488148
vn -0.370809 -0.292332 0.881500
vn -0.423038 -0.201594 0.883402
vn -0.481607 -0.065607 0.873928
vn -0.480763 0.011150 0.876779
vn -0.453310 0.185724 0.871789
vn -0.441109 0.279634 0.852777
vn -0.873788 0.071207 0.481065
vn -0.811736 0.337266 0.476798
vn -0.582930 0.633292 0.509052
vn -0.739659 0.639659 0.209143
vn -0.230648 0.561436 0.794727
vn -0.021884 0.697478 0.716272
vn -0.193758 0.798501 0.569960
vn -0.353047 0.862520 0.362516
vn -0.259716 0.505000 0.823118
vn -0.062559 0.682210 0.728475
vn -0.776626 0.541125 -0.322545
vn -0.824760 0.544214 -0.153630
vn -0.669428 0.731218 -0.131097
vn -0.709221 0.617021 -0.341013
s 1
g Roca_04_low
usemtl initialShadingGroup
f 1/1/1 23/233/2 129/3/3 128/4/4
f 128/4/4 129/3/3 96/5/5 95/6/6
f 23/233/2 7/232/7 132/8/8 129/3/3
f 129/3/3 132/8/8 99/9/9 96/5/5
f 96/5/5 99/9/9 133/10/10 130/11/11
f 130/11/11 133/10/10 102/12/12 97/13/13
f 95/6/6 96/5/5 130/11/11 131/14/14
f 131/14/14 130/11/11 97/13/13 98/15/15
f 7/232/7 24/224/16 100/17/17 132/8/8
f 132/8/8 100/17/17 25/18/18 99/9/9
f 99/9/9 25/18/18 101/19/19 133/10/10
f 133/10/10 101/19/19 8/20/20 102/12/12
f 102/12/12 8/20/20 104/21/21 134/22/22
f 134/22/22 104/21/21 26/23/23 103/221/24
f 103/24/24 26/218/23 27/25/25 9/26/26
f 98/15/15 97/13/13 136/27/27 135/28/28
f 135/28/28 136/27/27 106/222/29 105/212/30
f 97/13/13 102/12/12 134/22/22 136/27/27
f 136/27/27 134/22/22 103/221/24 106/222/29
f 106/29/29 103/24/24 9/26/26 28/31/31
f 105/30/30 106/29/29 28/31/31 2/32/32
f 2/32/32 28/31/31 138/33/33 137/34/34
f 137/34/34 138/33/33 108/35/35 107/36/36
f 28/31/31 9/26/26 141/37/37 138/33/33
f 138/33/33 141/37/37 111/38/38 108/35/35
f 108/35/35 111/38/38 142/39/39 139/40/40
f 139/40/40 142/39/39 114/41/41 109/42/42
f 107/36/36 108/35/35 139/40/40 140/43/43
f 140/43/43 139/40/40 109/42/42 110/44/44
f 9/26/26 27/25/25 112/45/45 141/37/37
f 141/37/37 112/45/45 29/46/46 111/38/38
f 111/38/38 29/46/46 113/47/47 142/39/39
f 142/39/39 113/47/47 10/48/48 114/41/41
f 114/41/41 10/48/48 30/49/49 115/50/50
f 115/50/50 30/49/49 116/51/51 143/52/52
f 143/52/52 116/51/51 31/53/53 11/54/54
f 110/44/44 109/42/42 118/55/55 117/56/56
f 109/42/42 114/41/41 115/50/50 118/55/55
f 118/55/55 115/50/50 143/52/52 144/57/57
f 144/57/57 143/52/52 11/204/54 32/58/58
f 117/56/56 118/55/55 144/57/57 145/59/59
f 145/59/59 144/57/57 32/58/58 3/60/60
f 3/60/60 32/58/58 120/205/61 119/206/62
f 32/58/58 11/204/54 123/201/63 120/205/61
f 120/61/61 123/202/63 148/199/64 146/65/65
f 146/65/65 148/199/64 126/198/66 121/67/67
f 119/62/62 120/61/61 146/65/65 147/68/68
f 147/68/68 146/65/65 121/67/67 122/69/69
f 11/54/54 31/53/53 124/203/70 123/200/63
f 123/63/63 124/70/70 125/71/71 148/64/64
f 148/64/64 125/71/71 5/72/72 126/66/66
f 126/66/66 5/72/72 37/73/73 149/197/74
f 149/197/74 37/73/73 13/75/75 127/76/76
f 127/76/76 13/75/75 38/77/77 150/195/78
f 150/195/78 38/77/77 14/79/79 6/193/80
f 122/69/69 121/67/67 152/81/81 151/82/82
f 151/82/82 152/81/81 40/83/83 39/84/84
f 121/67/67 126/198/66 149/74/74 152/81/81
f 152/81/81 149/74/74 127/196/76 40/83/83
f 40/83/83 127/196/76 150/78/78 153/85/85
f 153/85/85 150/78/78 6/194/80 15/231/86
f 39/84/84 40/83/83 153/85/85 154/87/87
f 154/87/87 153/85/85 15/231/86 4/192/88
f 4/88/88 15/86/86 156/89/89 155/191/90
f 155/191/90 156/89/89 42/91/91 41/92/92
f 15/86/86 6/80/80 157/93/93 156/89/89
f 156/89/89 157/93/93 45/94/94 42/91/91
f 42/91/91 45/94/94 48/95/95 43/96/96
f 41/92/92 42/91/91 43/96/96 44/97/97
f 6/80/80 14/230/79 46/229/98 157/93/93
f 157/93/93 46/229/98 16/228/99 45/94/94
f 45/94/94 16/228/99 47/227/100 48/95/95
f 48/95/95 47/227/100 50/226/101 158/102/102
f 158/102/102 50/226/101 17/225/103 49/104/104
f 49/104/104 17/225/103 51/223/105 159/106/106
f 159/106/106 51/223/105 24/16/16 7/7/7
f 44/97/97 43/96/96 161/107/107 160/188/108
f 160/188/108 161/107/107 53/109/109 52/110/110
f 43/96/96 48/95/95 158/102/102 161/107/107
f 161/107/107 158/102/102 49/104/104 53/109/109
f 53/109/109 49/104/104 159/106/106 162/111/111
f 162/111/111 159/106/106 7/7/7 23/2/2
f 52/110/110 53/109/109 162/111/111 163/186/112
f 163/186/112 162/111/111 23/2/2 1/185/1
f 24/224/16 51/105/105 164/113/113 100/17/17
f 51/105/105 17/103/103 54/114/114 164/113/113
f 164/113/113 54/114/114 33/115/115 55/116/116
f 100/17/17 164/113/113 55/116/116 25/18/18
f 17/103/103 50/101/101 165/117/117 54/114/114
f 50/101/101 47/100/100 168/118/118 165/117/117
f 165/117/117 168/118/118 61/119/119 56/120/120
f 54/114/114 165/117/117 56/120/120 33/115/115
f 33/115/115 56/120/120 166/121/121 58/122/122
f 56/120/120 61/119/119 171/123/123 166/121/121
f 166/121/121 171/123/123 65/124/124 57/125/125
f 58/122/122 166/121/121 57/125/125 18/126/126
f 25/18/18 55/116/116 167/127/127 101/19/19
f 55/116/116 33/115/115 58/122/122 167/127/127
f 167/127/127 58/122/122 18/126/126 59/128/128
f 101/19/19 167/127/127 59/128/128 8/20/20
f 47/100/100 16/99/99 60/129/129 168/118/118
f 168/118/118 60/129/129 34/130/130 61/119/119
f 16/99/99 46/98/98 169/131/131 60/129/129
f 46/98/98 14/79/79 38/77/77 169/131/131
f 169/131/131 38/77/77 13/75/75 62/132/132
f 60/129/129 169/131/131 62/132/132 34/130/130
f 34/130/130 62/132/132 170/133/133 64/134/134
f 62/132/132 13/75/75 37/73/73 170/133/133
f 170/133/133 37/73/73 5/72/72 63/135/135
f 64/134/134 170/133/133 63/135/135 19/136/136
f 61/119/119 34/130/130 64/134/134 171/123/123
f 171/123/123 64/134/134 19/136/136 65/124/124
f 65/124/124 19/136/136 66/137/137 172/138/138
f 172/138/138 66/137/137 69/220/139 67/216/140
f 19/136/136 63/135/135 173/141/141 66/137/137
f 63/135/135 5/72/72 125/71/71 173/141/141
f 173/141/141 125/71/71 124/70/70 68/219/142
f 66/137/137 173/141/141 68/219/142 69/220/139
f 68/142/142 124/203/70 31/53/53 116/51/51
f 69/139/139 68/142/142 116/51/51 30/49/49
f 67/140/140 69/139/139 30/49/49 10/48/48
f 8/20/20 59/128/128 174/143/143 104/21/21
f 59/128/128 18/126/126 70/144/144 174/143/143
f 174/143/143 70/144/144 73/215/145 71/217/146
f 104/21/21 174/143/143 71/217/146 26/23/23
f 18/126/126 57/125/125 175/147/147 70/144/144
f 57/125/125 65/124/124 172/138/138 175/147/147
f 175/147/147 172/138/138 67/216/140 72/214/148
f 70/144/144 175/147/147 72/214/148 73/215/145
f 72/148/148 67/140/140 10/48/48 113/47/47
f 73/145/145 72/148/148 113/47/47 29/46/46
f 71/146/146 73/145/145 29/46/46 112/45/45
f 26/218/23 71/146/146 112/45/45 27/25/25
f 4/192/88 155/90/90 176/149/149 154/87/87
f 155/90/90 41/190/92 74/150/150 176/149/149
f 176/149/149 74/150/150 35/151/151 75/152/152
f 154/87/87 176/149/149 75/152/152 39/84/84
f 41/190/92 44/189/97 76/153/153 74/150/150
f 74/150/150 76/153/153 20/154/154 35/151/151
f 35/151/151 20/154/154 77/155/155 78/156/156
f 78/156/156 77/155/155 12/157/157 21/158/158
f 39/84/84 75/152/152 177/159/159 151/82/82
f 75/152/152 35/151/151 78/156/156 177/159/159
f 177/159/159 78/156/156 21/158/158 79/160/160
f 151/82/82 177/159/159 79/160/160 122/69/69
f 44/189/97 160/108/108 178/161/161 76/153/153
f 160/108/108 52/187/110 80/162/162 178/161/161
f 178/161/161 80/162/162 36/163/163 81/164/164
f 76/153/153 178/161/161 81/164/164 20/154/154
f 52/187/110 163/112/112 179/165/165 80/162/162
f 163/112/112 1/1/1 128/4/4 179/165/165
f 179/165/165 128/4/4 95/6/6 82/166/166
f 80/162/162 179/165/165 82/166/166 36/163/163
f 36/163/163 82/166/166 180/167/167 84/168/168
f 82/166/166 95/6/6 131/14/14 180/167/167
f 180/167/167 131/14/14 98/15/15 83/169/169
f 84/168/168 180/167/167 83/169/169 22/170/170
f 20/154/154 81/164/164 181/171/171 77/155/155
f 81/164/164 36/163/163 84/168/168 181/171/171
f 181/171/171 84/168/168 22/170/170 85/172/172
f 77/155/155 181/171/171 85/172/172 12/157/157
f 12/157/157 85/172/172 182/173/173 88/174/174
f 85/172/172 22/170/170 86/175/175 182/173/173
f 182/173/173 86/175/175 90/211/176 87/213/177
f 88/174/174 182/173/173 87/213/177 91/207/178
f 22/170/170 83/169/169 183/179/179 86/175/175
f 83/169/169 98/15/15 135/28/28 183/179/179
f 183/179/179 135/28/28 105/212/30 89/210/180
f 86/175/175 183/179/179 89/210/180 90/211/176
f 89/180/180 105/30/30 2/32/32 137/34/34
f 90/176/176 89/180/180 137/34/34 107/36/36
f 87/177/177 90/176/176 107/36/36 140/43/43
f 91/178/178 87/177/177 140/43/43 110/44/44
f 122/69/69 79/160/160 184/181/181 147/68/68
f 79/160/160 21/158/158 92/182/182 184/181/181
f 184/181/181 92/182/182 94/208/183 93/209/184
f 147/68/68 184/181/181 93/209/184 119/62/62
f 21/158/158 12/157/157 88/174/174 92/182/182
f 92/182/182 88/174/174 91/207/178 94/208/183
f 94/183/183 91/178/178 110/44/44 117/56/56
f 93/184/184 94/183/183 117/56/56 145/59/59
f 119/206/62 93/184/184 145/59/59 3/60/60
