# This file uses centimeters as units for non-parametric coordinates.

mtllib Roca_01_low.mtl
g default
v -70.993658 63.820881 92.712927
v 36.562340 46.518493 66.331621
v -70.979583 259.453654 64.103747
v 42.013137 281.161752 83.530176
v -70.676674 280.402269 -87.040829
v 42.013137 278.243144 -87.623522
v -68.129443 39.683602 -76.880300
v 22.144632 39.683602 -87.378764
v -83.613958 143.317982 95.816159
v -68.009713 143.317982 -95.655427
v 45.455867 143.317982 -97.138674
v 47.151115 143.317982 64.770377
v -76.872717 278.961742 -18.360547
v -81.754028 143.317982 -9.713997
v -75.988044 25.760545 -16.581788
v 36.213719 25.597373 -18.533922
v 54.066541 143.317982 -18.928043
v 49.056248 284.612072 -18.533922
v -71.466776 224.816865 -106.256398
v -81.662154 220.911445 -18.503825
v -81.373712 212.130594 70.035335
v 48.622924 224.816865 88.292007
v 56.105800 224.755346 -18.533922
v 45.794097 224.811264 -97.014331
v -77.151071 264.590401 28.159503
v -83.168895 209.931970 27.694627
v -84.503591 143.317982 42.709889
v -75.766625 42.113705 37.917430
v 42.784279 27.956619 32.342164
v 56.797828 143.317982 22.914099
v 58.111680 224.816865 40.343247
v 49.056248 287.230365 40.063405
v -14.939666 55.360302 96.745424
v -22.375743 143.317982 105.316963
v -18.681334 224.695860 86.978388
v -14.331770 284.696052 82.349513
v -14.331770 291.349702 38.378691
v -14.331770 292.258428 -18.533922
v -14.331770 285.297419 -96.986829
v -6.369543 224.816865 -116.751774
v -2.262700 143.317982 -117.711910
v -25.829461 25.597373 -96.286919
v -19.820581 8.235720 -18.515504
v -15.586325 31.979941 37.571230
v 52.290227 79.929962 -18.928043
v 29.187743 25.597373 -60.690850
v 37.459541 79.929962 -96.786811
v 51.427919 143.317982 -60.792602
v 58.056970 259.303438 -18.533922
v 53.755448 224.755346 -60.792602
v 48.495560 259.834648 -97.014331
v 49.056248 284.612072 -60.792602
v -50.484830 288.476548 -18.526394
v -14.331770 292.516679 -60.792602
v -81.185138 188.595139 -15.219916
v -68.087298 188.595139 -104.807610
v -82.592768 186.951366 31.469503
v -82.241811 187.630199 79.554511
v -21.565015 188.595139 97.063108
v 58.111680 188.595139 31.559217
v 47.969810 188.595139 77.203651
v 54.498571 188.595139 -18.533922
v 45.369321 188.595139 -97.134134
v -2.224265 188.595139 -120.587724
v -81.427817 212.640257 7.741416
v -76.872717 267.711872 8.417542
v -81.084097 143.317982 14.783517
v -75.576179 33.005656 11.650849
v -15.474960 19.903269 11.650849
v 42.067365 25.840546 10.667714
v 56.064436 143.317982 5.119114
v 58.022496 224.816865 12.400103
v 49.056248 285.657219 12.426115
v -14.331770 290.683691 12.611846
v 18.225566 44.343391 81.237835
v 17.649233 143.317982 86.371811
v 19.377107 224.816865 92.158547
v 21.889956 288.204885 85.865015
v 21.889956 295.627509 38.702816
v 21.889956 292.516679 -18.533922
v 21.889956 285.297419 -97.014331
v 23.988269 224.816865 -110.597707
v 26.004024 143.317982 -111.980878
v 2.165261 25.597373 -96.526570
v 10.429000 7.486510 -18.533922
v 16.982447 22.429195 35.758364
v -51.567701 55.360302 96.702320
v -17.711020 89.188676 109.463670
v -59.373752 143.317982 107.807752
v -79.767441 86.234975 99.975880
v -50.582813 271.423449 76.269802
v -14.331770 292.996658 63.146280
v -50.540336 278.245561 34.468426
v -77.636017 264.635766 50.431354
v -37.286049 143.317982 -113.062585
v -14.454273 79.929962 -107.560519
v -49.936570 25.597373 -92.293841
v -74.070625 79.929962 -80.473445
v -49.697200 31.979941 37.197495
v -15.472271 37.249439 67.837388
v -77.485609 46.224405 68.326513
v 42.784279 29.736077 55.242185
v 51.839710 79.929962 22.914099
v 56.749146 143.317982 44.289939
v 43.721650 79.985895 65.377720
v -84.440907 80.800987 42.185819
v -89.087247 143.317982 72.031060
v -84.428601 237.469472 26.702292
v -87.274252 209.931970 50.361522
v -79.149324 239.940791 66.687537
v -50.553498 286.534759 -96.644789
v -13.278488 260.007356 -109.608028
v -42.317351 224.816865 -119.273647
v -77.314707 260.986445 -96.790215
v 58.091399 224.816865 68.009403
v 58.111680 260.796641 40.638636
v 49.056248 288.171399 67.347203
v 49.056248 261.038590 89.051785
v -55.709887 217.954722 81.910124
v -14.908454 259.366814 87.445846
v -82.083466 224.816865 -66.606637
v -83.541938 252.902350 -18.214364
v -77.535507 287.407405 -60.336514
v -75.172554 25.597373 -54.687621
v -82.397481 79.929962 -8.409949
v -83.077125 143.317982 -51.501035
v -26.015893 7.486510 -60.422459
v -49.499020 8.235720 -18.497012
v -54.955168 89.077171 112.132590
v -50.553498 279.325138 58.350486
v -46.454787 79.929962 -97.263827
v -50.716393 37.249439 67.400933
v 51.839710 79.929962 44.399529
v -86.651964 83.468957 74.585240
v -86.621123 237.469472 48.375717
v -49.607195 260.611877 -109.050560
v 58.111680 261.038590 68.668862
v -52.102626 248.076427 79.869933
v -85.287245 260.948803 -59.789459
v -84.162944 79.929962 -42.296662
v -50.106537 7.486510 -60.136816
v 49.525199 79.929962 -60.771765
v 57.514506 259.303438 -60.792602
v -50.553498 294.260646 -60.669243
v -81.394301 188.595139 -60.776739
v -88.108423 186.962508 58.078647
v -58.194652 188.552721 93.035541
v 57.947941 188.595139 56.620419
v 51.353113 188.595139 -60.792602
v -37.344432 188.595139 -120.571983
v -83.541938 241.167667 7.281987
v -80.063040 187.613058 8.629341
v -82.237927 79.929962 13.573245
v -50.056547 19.903269 11.650849
v 52.420222 79.929962 5.119114
v 57.484859 188.595139 9.525267
v 58.111680 259.942418 12.450416
v -50.484830 279.947876 11.065523
v 19.395832 84.264284 88.305346
v 17.572948 188.595139 89.801931
v 21.800776 261.038590 93.025696
v 21.889956 297.026826 64.983387
v 21.889956 293.762774 12.377478
v 21.889956 292.516679 -60.792602
v 21.860987 260.007356 -109.088240
v 26.043461 188.595139 -112.340782
v 14.985751 79.929962 -108.703436
v 2.086633 7.486510 -60.524377
v 16.626287 13.956855 11.650849
v 16.980028 26.306612 60.623497
vt 0.375000 0.000000
vt 0.375000 1.000000
vt 0.625000 0.000000
vt 0.625000 1.000000
vt 0.375000 0.250000
vt 0.625000 0.250000
vt 0.375000 0.500000
vt 0.125000 0.250000
vt 0.875000 0.250000
vt 0.625000 0.500000
vt 0.375000 0.750000
vt 0.125000 0.000000
vt 0.875000 0.000000
vt 0.625000 0.750000
vt 0.382812 0.117188
vt 0.375000 0.625000
vt 0.125000 0.125000
vt 0.875000 0.125000
vt 0.625000 0.625000
vt 0.617188 0.117188
vt 0.250000 0.250000
vt 0.375000 0.375000
vt 0.242188 0.117188
vt 0.250000 0.000000
vt 0.375000 0.875000
vt 0.750000 0.000000
vt 0.625000 0.875000
vt 0.757812 0.117188
vt 0.750000 0.250000
vt 0.625000 0.375000
vt 0.375000 0.562500
vt 0.125000 0.187500
vt 0.242188 0.187500
vt 0.382812 0.187500
vt 0.617188 0.187500
vt 0.757812 0.187500
vt 0.875000 0.187500
vt 0.625000 0.562500
vt 0.375000 0.312500
vt 0.312500 0.250000
vt 0.312500 0.187500
vt 0.312500 0.117188
vt 0.375000 0.937500
vt 0.312500 0.000000
vt 0.687500 0.000000
vt 0.625000 0.937500
vt 0.687500 0.117188
vt 0.687500 0.187500
vt 0.687500 0.250000
vt 0.625000 0.312500
vt 0.500000 0.000000
vt 0.500000 1.000000
vt 0.500000 0.117188
vt 0.500000 0.187500
vt 0.500000 0.250000
vt 0.500000 0.312500
vt 0.500000 0.382812
vt 0.500000 0.492188
vt 0.500000 0.562500
vt 0.500000 0.632812
vt 0.500000 0.750000
vt 0.500000 0.867188
vt 0.500000 0.937500
vt 0.437500 0.062500
vt 0.437500 0.281250
vt 0.437500 0.687500
vt 0.437500 0.968750
vt 0.656250 0.062500
vt 0.343750 0.062500
vt 0.343750 0.218750
vt 0.437500 0.531250
vt 0.656250 0.218750
vt 0.437500 0.218750
vt 0.187500 0.218750
vt 0.187500 0.062500
vt 0.437500 0.812500
vt 0.812500 0.062500
vt 0.812500 0.218750
vt 0.437500 0.437500
vt 0.187500 0.156250
vt 0.343750 0.156250
vt 0.437500 0.156250
vt 0.656250 0.156250
vt 0.812500 0.156250
vt 0.437500 0.593750
vt 0.281250 0.218750
vt 0.281250 0.156250
vt 0.281250 0.062500
vt 0.437500 0.906250
vt 0.718750 0.062500
vt 0.718750 0.156250
vt 0.718750 0.218750
vt 0.437500 0.343750
vt 0.562500 0.062500
vt 0.562500 0.156250
vt 0.562500 0.218750
vt 0.562500 0.281250
vt 0.562500 0.343750
vt 0.562500 0.437500
vt 0.562500 0.531250
vt 0.562500 0.593750
vt 0.562500 0.687500
vt 0.562500 0.812500
vt 0.562500 0.906250
vt 0.562500 0.968750
vt 0.437500 0.000000
vt 0.437500 1.000000
vt 0.500000 0.062500
vt 0.437500 0.117188
vt 0.382812 0.062500
vt 0.437500 0.250000
vt 0.500000 0.281250
vt 0.437500 0.312500
vt 0.375000 0.281250
vt 0.343750 0.250000
vt 0.437500 0.632812
vt 0.500000 0.687500
vt 0.437500 0.750000
vt 0.375000 0.687500
vt 0.125000 0.062500
vt 0.437500 0.937500
vt 0.500000 0.968750
vt 0.375000 0.968750
vt 0.343750 0.000000
vt 0.656250 0.000000
vt 0.625000 0.968750
vt 0.687500 0.062500
vt 0.656250 0.117188
vt 0.617188 0.062500
vt 0.312500 0.062500
vt 0.343750 0.117188
vt 0.312500 0.218750
vt 0.343750 0.187500
vt 0.382812 0.218750
vt 0.437500 0.492188
vt 0.500000 0.531250
vt 0.437500 0.562500
vt 0.375000 0.531250
vt 0.125000 0.218750
vt 0.656250 0.187500
vt 0.687500 0.218750
vt 0.656250 0.250000
vt 0.625000 0.281250
vt 0.617188 0.218750
vt 0.437500 0.187500
vt 0.500000 0.218750
vt 0.187500 0.187500
vt 0.242188 0.218750
vt 0.187500 0.250000
vt 0.375000 0.437500
vt 0.187500 0.000000
vt 0.375000 0.812500
vt 0.242188 0.062500
vt 0.187500 0.117188
vt 0.500000 0.812500
vt 0.437500 0.867188
vt 0.757812 0.062500
vt 0.812500 0.000000
vt 0.625000 0.812500
vt 0.875000 0.062500
vt 0.625000 0.687500
vt 0.812500 0.117188
vt 0.757812 0.218750
vt 0.812500 0.187500
vt 0.875000 0.218750
vt 0.625000 0.531250
vt 0.812500 0.250000
vt 0.625000 0.437500
vt 0.437500 0.382812
vt 0.500000 0.437500
vt 0.242188 0.156250
vt 0.125000 0.156250
vt 0.375000 0.593750
vt 0.312500 0.156250
vt 0.382812 0.156250
vt 0.500000 0.156250
vt 0.687500 0.156250
vt 0.617188 0.156250
vt 0.757812 0.156250
vt 0.875000 0.156250
vt 0.625000 0.593750
vt 0.500000 0.593750
vt 0.281250 0.187500
vt 0.281250 0.250000
vt 0.375000 0.343750
vt 0.281250 0.117188
vt 0.281250 0.000000
vt 0.375000 0.906250
vt 0.500000 0.906250
vt 0.718750 0.000000
vt 0.625000 0.906250
vt 0.718750 0.117188
vt 0.718750 0.187500
vt 0.718750 0.250000
vt 0.625000 0.343750
vt 0.500000 0.343750
vt 0.562500 0.000000
vt 0.562500 1.000000
vt 0.562500 0.117188
vt 0.562500 0.187500
vt 0.562500 0.250000
vt 0.562500 0.312500
vt 0.562500 0.382812
vt 0.562500 0.492188
vt 0.562500 0.562500
vt 0.562500 0.632812
vt 0.562500 0.750000
vt 0.562500 0.867188
vt 0.562500 0.937500
vn -0.580292 -0.525529 0.622158
vn -0.112386 -0.643784 0.756909
vn -0.136701 -0.097443 0.985808
vn -0.749176 -0.129379 0.649612
vn 0.164485 -0.532031 0.830594
vn 0.274626 -0.064724 0.959370
vn 0.226193 0.110859 0.967754
vn -0.187510 0.160430 0.969073
vn -0.757081 0.106493 0.644583
vn -0.662689 0.438439 0.607136
vn -0.409154 0.508751 0.757473
vn -0.425825 0.891536 0.154390
vn -0.755908 0.642023 0.128098
vn -0.235739 0.592864 0.770026
vn -0.239670 0.958988 0.151328
vn -0.219067 0.975021 -0.036665
vn -0.383491 0.923542 0.002217
vn -0.764750 0.644262 0.009135
vn -0.796048 -0.089658 -0.598556
vn -0.314977 -0.150457 -0.937098
vn -0.388877 -0.134691 -0.911391
vn -0.835023 -0.079153 -0.544492
vn -0.005778 -0.114932 -0.993357
vn -0.108516 -0.155067 -0.981926
vn -0.111633 -0.484665 -0.867547
vn -0.398590 -0.428600 -0.810819
vn -0.804794 -0.230903 -0.546800
vn -0.837774 -0.539137 0.086401
vn -0.164375 -0.946275 0.278470
vn -0.143057 -0.924303 0.353834
vn -0.765729 -0.605633 0.216492
vn -0.117948 -0.953327 0.277949
vn -0.072630 -0.912503 0.402572
vn 0.716801 -0.239840 0.654732
vn 0.798266 -0.533770 0.279037
vn 0.976358 -0.104519 0.189214
vn 0.774578 -0.057812 0.629831
vn 0.847209 -0.526216 0.073035
vn 0.992525 -0.122018 0.002394
vn 0.998569 -0.052936 -0.007585
vn 0.977983 -0.072054 0.195853
vn 0.747713 -0.076681 0.659580
vn -0.992328 -0.006912 -0.123438
vn -0.993702 -0.085192 -0.072788
vn -0.988980 -0.121852 0.084090
vn -0.998863 0.003120 0.047567
vn -0.991552 0.109276 -0.069885
vn -0.983281 0.155386 0.094944
vn -0.990845 -0.042150 -0.128258
vn -0.998915 0.028476 0.036860
vn -0.723752 0.199832 0.660492
vn -0.701191 0.183078 0.689068
vn -0.622217 0.643898 -0.445243
vn -0.126767 0.810451 -0.571926
vn -0.186461 0.307985 -0.932940
vn -0.819028 0.154227 -0.552637
vn 0.013557 0.827532 -0.561254
vn 0.033830 0.308217 -0.950714
vn 0.094239 0.135966 -0.986221
vn -0.180758 0.113838 -0.976917
vn -0.781160 -0.008434 -0.624274
vn 0.544830 -0.106048 0.831814
vn 0.975470 -0.043663 0.215757
vn 0.973418 0.135784 0.184447
vn 0.553940 0.105603 0.825832
vn 0.999995 -0.002251 -0.002164
vn 0.989554 0.144074 -0.005022
vn 0.698388 0.714892 -0.034404
vn 0.689743 0.706086 0.160303
vn 0.463797 0.532092 0.708357
vn -0.290040 0.216332 0.932243
vn -0.313022 0.126135 0.941333
vn -0.106779 0.107742 0.988428
vn -0.172650 0.101639 0.979725
vn -0.988771 -0.062924 -0.135548
vn -0.993722 0.082324 -0.075764
vn -0.998913 -0.046355 0.004922
vn -0.996024 0.076516 0.045627
vn -0.704857 0.685384 0.182826
vn -0.685987 0.727260 -0.022716
vn -0.887230 -0.434994 -0.153632
vn -0.992099 -0.051638 -0.114336
vn -0.880652 -0.468463 0.070672
vn -0.998199 -0.053604 0.026934
vn -0.999370 0.020205 0.029197
vn -0.989700 0.000997 -0.143156
vn -0.335321 -0.917812 -0.212560
vn -0.013219 -0.976755 -0.213951
vn -0.025348 -0.985925 0.165257
vn -0.273615 -0.949640 0.152703
vn 0.997539 -0.022962 -0.066250
vn 0.984046 -0.157504 -0.082744
vn 0.968187 -0.179412 -0.174428
vn 0.990603 -0.030483 -0.133332
vn 0.850293 -0.517356 -0.096665
vn 0.811050 -0.540653 -0.223366
vn 0.711791 -0.452273 -0.537404
vn 0.817113 -0.203702 -0.539288
vn 0.876136 -0.054425 -0.478981
vn 0.681398 0.731801 -0.012837
vn 0.993564 0.111022 -0.022454
vn 0.988908 0.087361 -0.120117
vn 0.679399 0.726031 -0.106284
vn 0.997273 -0.051500 -0.052855
vn 0.989982 -0.066557 -0.124522
vn 0.852778 -0.029064 -0.521464
vn 0.813075 0.123890 -0.568824
vn 0.618452 0.655008 -0.434145
vn -0.198866 0.967042 0.159002
vn -0.120018 0.992155 -0.034978
vn -0.061110 0.996500 0.057040
vn 0.000737 0.997274 -0.073784
vn -0.988310 -0.028495 -0.149771
vn -0.785111 -0.093525 -0.612253
vn -0.999810 0.006180 0.018512
vn -0.999264 0.037946 0.005613
vn -0.741970 0.249002 0.622477
vn -0.989006 -0.016132 -0.146993
vn -0.238239 0.299905 0.923742
vn 0.068529 0.173945 0.982368
vn 0.974104 -0.076050 0.212926
vn 0.639171 -0.165588 0.751027
vn 0.999831 -0.016132 -0.008840
vn 0.992874 -0.021683 -0.117180
vn 0.888267 -0.004215 -0.459308
vn 0.996826 -0.024253 -0.075820
vn -0.228513 -0.069356 -0.971067
vn 0.100896 -0.005445 -0.994882
vn -0.997401 0.071965 0.003567
vn -0.756528 0.633828 0.161023
vn -0.998140 -0.050204 -0.034591
vn -0.999456 -0.002920 -0.032843
vn -0.998791 0.013441 -0.047286
vn -0.997964 -0.060058 -0.021473
vn -0.854442 -0.495607 0.155893
vn -0.209189 -0.909015 0.360461
vn -0.077647 -0.927400 0.365923
vn 0.989835 -0.134805 -0.045329
vn 0.998186 -0.038317 -0.046437
vn 0.858477 -0.512826 -0.005163
vn 0.998014 -0.018546 -0.060198
vn 0.999329 -0.015924 -0.032972
vn 0.990407 0.137371 -0.014954
vn 0.687824 0.725109 -0.033408
vn -0.321603 0.935074 0.149026
vn -0.163108 0.985857 0.038497
vn 0.539765 -0.044155 0.840657
vn 0.486526 0.004511 0.873654
vn 0.346659 -0.481169 0.805173
vn 0.287281 -0.034870 0.957212
vn 0.057886 -0.023037 0.998057
vn -0.018434 0.090982 0.995682
vn 0.001839 0.622615 0.782526
vn 0.061647 0.987132 0.147543
vn 0.076667 0.995604 -0.053802
vn 0.088746 0.995533 -0.032228
vn 0.112473 0.993645 -0.004427
vn 0.123540 0.988061 -0.092054
vn 0.148484 0.815282 -0.559703
vn 0.226177 0.244173 -0.942986
vn 0.334195 0.075041 -0.939512
vn 0.410545 0.019293 -0.911636
vn 0.361918 -0.075365 -0.929159
vn 0.259842 -0.184214 -0.947917
vn 0.207328 -0.564932 -0.798665
vn 0.268758 -0.935252 -0.230375
vn 0.261364 -0.964118 0.046538
vn 0.138570 -0.964618 0.224301
vn -0.037382 -0.971748 0.233043
vn -0.009700 -0.917498 0.397623
s 1
g Roca_01_low
usemtl initialShadingGroup
f 1/1/1 87/106/2 129/64/3 90/110/4
f 87/106/2 33/51/5 88/108/6 129/64/3
f 129/64/3 88/108/6 34/53/7 89/109/8
f 90/110/4 129/64/3 89/109/8 9/15/9
f 3/5/10 91/111/11 130/65/12 94/114/13
f 91/111/11 36/55/14 92/112/15 130/65/12
f 130/65/12 92/112/15 37/56/16 93/113/17
f 94/114/13 130/65/12 93/113/17 25/39/18
f 10/16/19 95/116/20 131/66/21 98/119/22
f 95/116/20 41/60/23 96/117/24 131/66/21
f 131/66/21 96/117/24 42/61/25 97/118/26
f 98/119/22 131/66/21 97/118/26 7/11/27
f 28/43/28 99/121/29 132/67/30 101/123/31
f 99/121/29 44/63/32 100/122/33 132/67/30
f 132/67/30 100/122/33 33/52/5 87/107/2
f 101/123/31 132/67/30 87/107/2 1/2/1
f 2/3/34 102/125/35 133/68/36 105/129/37
f 102/125/35 29/45/38 103/127/39 133/68/36
f 133/68/36 103/127/39 30/47/40 104/128/41
f 105/129/37 133/68/36 104/128/41 12/20/42
f 27/42/43 106/130/44 134/69/45 107/131/46
f 106/130/44 28/44/28 101/124/31 134/69/45
f 134/69/45 101/124/31 1/1/1 90/110/4
f 107/131/46 134/69/45 90/110/4 9/15/9
f 25/40/18 108/132/47 135/70/48 94/115/13
f 108/132/47 26/41/49 109/133/50 135/70/48
f 135/70/48 109/133/50 21/34/51 110/134/52
f 94/115/13 135/70/48 110/134/52 3/5/10
f 5/7/53 111/135/54 136/71/55 114/138/56
f 111/135/54 39/58/57 112/136/58 136/71/55
f 136/71/55 112/136/58 40/59/59 113/137/60
f 114/138/56 136/71/55 113/137/60 19/31/61
f 22/35/62 115/140/63 137/72/64 118/144/65
f 115/140/63 31/48/66 116/141/67 137/72/64
f 137/72/64 116/141/67 32/49/68 117/142/69
f 118/144/65 137/72/64 117/142/69 4/6/70
f 21/34/51 119/145/71 138/73/72 110/134/52
f 119/145/71 35/54/73 120/146/74 138/73/72
f 138/73/72 120/146/74 36/55/14 91/111/11
f 110/134/52 138/73/72 91/111/11 3/5/10
f 19/32/61 121/147/75 139/74/76 114/139/56
f 121/147/75 20/33/77 122/148/78 139/74/76
f 139/74/76 122/148/78 13/21/79 123/149/80
f 114/139/56 139/74/76 123/149/80 5/8/53
f 7/12/27 124/151/81 140/75/82 98/120/22
f 124/151/81 15/24/83 125/153/84 140/75/82
f 140/75/82 125/153/84 14/23/85 126/154/86
f 98/120/22 140/75/82 126/154/86 10/17/19
f 7/11/27 97/118/26 141/76/87 124/152/81
f 97/118/26 42/61/25 127/155/88 141/76/87
f 141/76/87 127/155/88 43/62/89 128/156/90
f 124/152/81 141/76/87 128/156/90 15/25/83
f 17/28/91 45/157/92 142/77/93 48/162/94
f 45/157/92 16/26/95 46/158/96 142/77/93
f 142/77/93 46/158/96 8/13/97 47/160/98
f 48/162/94 142/77/93 47/160/98 11/18/99
f 18/29/100 49/163/101 143/78/102 52/167/103
f 49/163/101 23/36/104 50/164/105 143/78/102
f 143/78/102 50/164/105 24/37/106 51/165/107
f 52/167/103 143/78/102 51/165/107 6/9/108
f 13/22/79 53/169/109 144/79/110 123/150/80
f 53/169/109 38/57/111 54/170/112 144/79/110
f 144/79/110 54/170/112 39/58/57 111/135/54
f 123/150/80 144/79/110 111/135/54 5/7/53
f 10/17/19 126/154/86 145/80/113 56/172/114
f 126/154/86 14/23/85 55/171/115 145/80/113
f 145/80/113 55/171/115 20/33/77 121/147/75
f 56/172/114 145/80/113 121/147/75 19/32/61
f 21/34/51 109/133/50 146/81/116 58/175/117
f 109/133/50 26/41/49 57/174/118 146/81/116
f 146/81/116 57/174/118 27/42/43 107/131/46
f 58/175/117 146/81/116 107/131/46 9/15/9
f 9/15/9 89/109/8 147/82/119 58/175/117
f 89/109/8 34/53/7 59/176/120 147/82/119
f 147/82/119 59/176/120 35/54/73 119/145/71
f 58/175/117 147/82/119 119/145/71 21/34/51
f 12/20/42 104/128/41 148/83/121 61/178/122
f 104/128/41 30/47/40 60/177/123 148/83/121
f 148/83/121 60/177/123 31/48/66 115/140/63
f 61/178/122 148/83/121 115/140/63 22/35/62
f 24/37/106 50/164/105 149/84/124 63/180/125
f 50/164/105 23/36/104 62/179/126 149/84/124
f 149/84/124 62/179/126 17/28/91 48/162/94
f 63/180/125 149/84/124 48/162/94 11/18/99
f 19/31/61 113/137/60 150/85/127 56/173/114
f 113/137/60 40/59/59 64/182/128 150/85/127
f 150/85/127 64/182/128 41/60/23 95/116/20
f 56/173/114 150/85/127 95/116/20 10/16/19
f 13/21/79 122/148/78 151/86/129 66/184/130
f 122/148/78 20/33/77 65/183/131 151/86/129
f 151/86/129 65/183/131 26/41/49 108/132/47
f 66/184/130 151/86/129 108/132/47 25/40/18
f 27/42/43 57/174/118 152/87/132 67/186/133
f 57/174/118 26/41/49 65/183/131 152/87/132
f 152/87/132 65/183/131 20/33/77 55/171/115
f 67/186/133 152/87/132 55/171/115 14/23/85
f 14/23/85 125/153/84 153/88/134 67/186/133
f 125/153/84 15/24/83 68/187/135 153/88/134
f 153/88/134 68/187/135 28/44/28 106/130/44
f 67/186/133 153/88/134 106/130/44 27/42/43
f 15/25/83 128/156/90 154/89/136 68/188/135
f 128/156/90 43/62/89 69/189/137 154/89/136
f 154/89/136 69/189/137 44/63/32 99/121/29
f 68/188/135 154/89/136 99/121/29 28/43/28
f 30/47/40 103/127/39 155/90/138 71/192/139
f 103/127/39 29/45/38 70/190/140 155/90/138
f 155/90/138 70/190/140 16/26/95 45/157/92
f 71/192/139 155/90/138 45/157/92 17/28/91
f 31/48/66 60/177/123 156/91/141 72/193/142
f 60/177/123 30/47/40 71/192/139 156/91/141
f 156/91/141 71/192/139 17/28/91 62/179/126
f 72/193/142 156/91/141 62/179/126 23/36/104
f 32/49/68 116/141/67 157/92/143 73/194/144
f 116/141/67 31/48/66 72/193/142 157/92/143
f 157/92/143 72/193/142 23/36/104 49/163/101
f 73/194/144 157/92/143 49/163/101 18/29/100
f 25/39/18 93/113/17 158/93/145 66/185/130
f 93/113/17 37/56/16 74/196/146 158/93/145
f 158/93/145 74/196/146 38/57/111 53/169/109
f 66/185/130 158/93/145 53/169/109 13/22/79
f 34/53/7 88/108/6 159/94/147 76/199/148
f 88/108/6 33/51/5 75/197/149 159/94/147
f 159/94/147 75/197/149 2/3/34 105/129/37
f 76/199/148 159/94/147 105/129/37 12/20/42
f 35/54/73 59/176/120 160/95/150 77/200/151
f 59/176/120 34/53/7 76/199/148 160/95/150
f 160/95/150 76/199/148 12/20/42 61/178/122
f 77/200/151 160/95/150 61/178/122 22/35/62
f 36/55/14 120/146/74 161/96/152 78/201/153
f 120/146/74 35/54/73 77/200/151 161/96/152
f 161/96/152 77/200/151 22/35/62 118/144/65
f 78/201/153 161/96/152 118/144/65 4/6/70
f 37/56/16 92/112/15 162/97/154 79/202/155
f 92/112/15 36/55/14 78/201/153 162/97/154
f 162/97/154 78/201/153 4/6/70 117/143/69
f 79/202/155 162/97/154 117/143/69 32/50/68
f 38/57/111 74/196/146 163/98/156 80/203/157
f 74/196/146 37/56/16 79/202/155 163/98/156
f 163/98/156 79/202/155 32/50/68 73/195/144
f 80/203/157 163/98/156 73/195/144 18/30/100
f 39/58/57 54/170/112 164/99/158 81/204/159
f 54/170/112 38/57/111 80/203/157 164/99/158
f 164/99/158 80/203/157 18/30/100 52/168/103
f 81/204/159 164/99/158 52/168/103 6/10/108
f 40/59/59 112/136/58 165/100/160 82/205/161
f 112/136/58 39/58/57 81/204/159 165/100/160
f 165/100/160 81/204/159 6/10/108 51/166/107
f 82/205/161 165/100/160 51/166/107 24/38/106
f 41/60/23 64/182/128 166/101/162 83/206/163
f 64/182/128 40/59/59 82/205/161 166/101/162
f 166/101/162 82/205/161 24/38/106 63/181/125
f 83/206/163 166/101/162 63/181/125 11/19/99
f 42/61/25 96/117/24 167/102/164 84/207/165
f 96/117/24 41/60/23 83/206/163 167/102/164
f 167/102/164 83/206/163 11/19/99 47/161/98
f 84/207/165 167/102/164 47/161/98 8/14/97
f 43/62/89 127/155/88 168/103/166 85/208/167
f 127/155/88 42/61/25 84/207/165 168/103/166
f 168/103/166 84/207/165 8/14/97 46/159/96
f 85/208/167 168/103/166 46/159/96 16/27/95
f 44/63/32 69/189/137 169/104/168 86/209/169
f 69/189/137 43/62/89 85/208/167 169/104/168
f 169/104/168 85/208/167 16/27/95 70/191/140
f 86/209/169 169/104/168 70/191/140 29/46/38
f 33/52/5 100/122/33 170/105/170 75/198/149
f 100/122/33 44/63/32 86/209/169 170/105/170
f 170/105/170 86/209/169 29/46/38 102/126/35
f 75/198/149 170/105/170 102/126/35 2/4/34
